<svg viewBox="0 0 512 512" xml:space="preserve" xmlns="http://www.w3.org/2000/svg" enable-background="new 0 0 512 512"><path d="m52.752 205.501 203.18 264.07-222.7-165.29c-6.11-4.59-8.72-12.58-6.38-19.771l25.87-79.05.03.041z" fill="#b3b3b3" class="fill-fca326"></path><path d="m171.302 205.461 84.71 264.08-.08.03-203.18-264.07.06-.04z" fill="#6b6b6b" class="fill-fc6d26"></path><path d="m340.731 205.461-84.71 264.11-.009-.03-84.71-264.08h169.34z" fill="#000000" class="fill-e24329"></path><path d="m459.292 205.501-203.271 264.07 84.71-264.11h118.5z" fill="#6b6b6b" class="fill-fc6d26"></path><path d="M485.191 284.511c2.24 7.19-.27 15.181-6.47 19.771l-222.7 165.29 203.271-264.07.029-.04 25.87 79.049z" fill="#b3b3b3" class="fill-fca326"></path><path d="m408.472 48.421 50.76 157.04h-118.59l50.85-157.04c2.869-7.99 14.19-7.99 16.98 0zM171.392 205.461H52.812l50.76-157.04c2.87-7.99 14.19-7.99 16.98 0 0 0 50.75 157.04 50.84 157.04z" fill="#000000" class="fill-e24329"></path></svg>