<svg viewBox="0 0 64 64" xml:space="preserve" xmlns="http://www.w3.org/2000/svg" enable-background="new 0 0 64 64"><circle cx="33.954" cy="31.688" r="30.126" fill="#ffffff" class="fill-015f7c"></circle><circle cx="30.207" cy="32.312" r="30.126" fill="#ffffff" class="fill-007bb6"></circle><circle cx="17" cy="16.143" r="4.387" fill="#000000" class="fill-ffffff"></circle><path d="M42.676 48c0-2 .008-2.604.001-3.922-.013-2.229.043-4.443-.008-6.672-.051-2.23.114-5.431-2.07-6.839-.513-.331-1.764-.489-2.371-.489-4.677 0-5.228 6.073-5.228 6.079V48h-7V24h7v2.798c2-1.544 4.088-3.642 8.098-3.642 2.141 0 4.609.749 6.051 2.358 1.508 1.684 2.406 3.854 2.686 6.068.23 1.839.282 3.698.288 5.547.011 3.357.062 6.681.074 10.038 0 .29.034-.167.036.833h-7.557zM13 24h8v24h-8z" fill="#000000" class="fill-ffffff"></path></svg>