<svg xmlns="http://www.w3.org/2000/svg" width="600" height="338.614" viewBox="0 0 600 338.614"><path fill="#0a4560" d="M165.416 169.307H600v169.307H165.416z"/><path d="M0 169.307l165.416 169.307V0H0v169.307zm212.546-12.514a9.294 9.294 0 0 0-.382-.324 3.57 3.57 0 0 1-.268-.23v-9.554c0-.204-.064-.421-.191-.65a2.371 2.371 0 0 0-.459-.592c-.178-.165-.381-.306-.61-.42s-.447-.173-.65-.173c-.918 0-1.81.077-2.676.23-.866.153-1.745.23-2.637.23-.28 0-.548-.045-.802-.135-.255-.089-.51-.177-.764-.267l-.764-.267a2.29 2.29 0 0 0-.765-.135c-.255 0-.407.109-.458.325a2.696 2.696 0 0 0-.077.63c0 .18.038.363.115.555.077.191.191.37.344.535.152.165.311.3.477.402.165.101.35.152.554.152h6.993c.205.205.32.471.346.802.05.332.075.574.075.727 0 1.249-.305 2.216-.917 2.905-.612.687-1.4 1.19-2.37 1.508-.968.32-2.043.51-3.228.575a64.353 64.353 0 0 1-3.46.095 6.48 6.48 0 0 1-1.871-.287 6.22 6.22 0 0 1-1.758-.841 4.79 4.79 0 0 1-1.337-1.394c-.359-.561-.536-1.198-.536-1.911 0-1.019.198-2.012.592-2.98.395-.97.93-1.873 1.606-2.715.674-.84 1.451-1.61 2.33-2.311s1.809-1.306 2.79-1.816c.981-.51 1.98-.898 3-1.166 1.018-.267 1.987-.4 2.905-.4.355 0 .712.037 1.069.114.357.077.7.171 1.033.286.33.116.662.217.993.306.33.09.675.135 1.031.135 0-.51-.101-.962-.304-1.358a2.895 2.895 0 0 0-.804-.974c-.33-.254-.732-.452-1.204-.592s-.961-.184-1.47-.134c-.994.102-2.064.325-3.211.669a21.52 21.52 0 0 0-3.439 1.375 22.599 22.599 0 0 0-3.305 2.026 17.514 17.514 0 0 0-2.81 2.56 12.44 12.44 0 0 0-1.949 2.961 7.641 7.641 0 0 0-.725 3.25c0 1.07.165 2.057.496 2.96.33.906.802 1.689 1.414 2.352a6.389 6.389 0 0 0 2.216 1.547c.866.37 1.835.554 2.905.554.79 0 1.56-.082 2.312-.248s1.497-.338 2.236-.516c.739-.178 1.484-.35 2.235-.516a10.208 10.208 0 0 1 2.198-.248c.05 0 .197.005.44.019.241.013.4.018.476.018 0 .357.013.784.04 1.281.024.498.114.975.266 1.433a3.4 3.4 0 0 0 .669 1.185c.293.33.708.496 1.243.496.152 0 .325-.044.515-.134.191-.088.364-.204.516-.343a1.76 1.76 0 0 0 .364-.459.67.67 0 0 0 .057-.516 9.24 9.24 0 0 0-.267-.248c-.13-.114-.255-.229-.383-.344zm13.93-16.605a3.343 3.343 0 0 0-.458-.478c-.167-.14-.35-.286-.554-.44a79.445 79.445 0 0 0-1.07-.324 18.68 18.68 0 0 0-.86-.23 6.168 6.168 0 0 0-.802-.133 10.35 10.35 0 0 0-.937-.038c-.485 0-.98.064-1.49.192-.51.127-1.014.285-1.51.477-.497.191-.987.394-1.472.61-.484.218-.955.402-1.414.556-.05-.05-.178-.115-.381-.192a5.098 5.098 0 0 1-.383-.153h-.075c-.053 0-.077-.006-.077-.02 0-.01-.013-.018-.038-.018-.026 0-.04.007-.04.019 0 .013-.012.019-.037.019h-.077a1.31 1.31 0 0 0-.325.535c-.063.204-.101.42-.114.65-.013.229-.006.452.019.668.026.218.039.415.039.593.05.943.158 1.995.325 3.153.165 1.16.387 2.35.668 3.573.28 1.224.624 2.433 1.031 3.631a20.82 20.82 0 0 0 1.452 3.324c.357 0 .676-.146.956-.439.28-.293.42-.567.42-.822a10.843 10.843 0 0 0-.343-2.025 42.58 42.58 0 0 0-.593-2.006 61.76 61.76 0 0 0-.688-2.026 17.14 17.14 0 0 1-.592-2.026 11.195 11.195 0 0 1-.268-2.083 8.07 8.07 0 0 1 .23-2.178c.407-.662.878-1.12 1.413-1.375a3.445 3.445 0 0 1 1.644-.498 7.682 7.682 0 0 1 1.834.154c.637.128 1.255.28 1.854.459.599.178 1.172.324 1.72.439.547.115 1.025.146 1.433.096 0-.408-.038-.739-.115-.994a1.964 1.964 0 0 0-.325-.65zm17.847 4.28a11.499 11.499 0 0 0-1.05-1.7 8.028 8.028 0 0 0-1.395-1.453 6.9 6.9 0 0 0-1.644-.993 4.72 4.72 0 0 0-1.853-.363c-1.249 0-2.49.171-3.726.515-1.237.345-2.351.873-3.345 1.587s-1.795 1.592-2.407 2.637c-.612 1.045-.917 2.268-.917 3.669 0 1.198.203 2.287.61 3.268.408.98.975 1.802 1.702 2.464a7.837 7.837 0 0 0 2.56 1.547c.98.37 2.058.554 3.23.554 1.146 0 2.267-.184 3.363-.554a9.398 9.398 0 0 0 2.941-1.604 7.703 7.703 0 0 0 2.064-2.58c.51-1.018.765-2.178.765-3.478 0-.56-.076-1.14-.23-1.739a8.871 8.871 0 0 0-.668-1.777zm-1.968 5.407a7.881 7.881 0 0 1-1.433 1.72 10.9 10.9 0 0 1-1.796 1.338c-.625.37-1.248.65-1.874.84-.623.192-1.153.262-1.585.211-.815 0-1.58-.158-2.293-.477a5.956 5.956 0 0 1-1.853-1.28 5.774 5.774 0 0 1-1.223-1.892 6.022 6.022 0 0 1-.44-2.274c0-.969.243-1.822.726-2.561a6.314 6.314 0 0 1 1.834-1.834 8.45 8.45 0 0 1 2.466-1.089 10.103 10.103 0 0 1 2.618-.364c1.476.535 2.637 1.115 3.478 1.74.84.624 1.42 1.274 1.737 1.948.32.676.434 1.35.346 2.026a4.945 4.945 0 0 1-.708 1.948zm22.126 2.524c-.229-.6-.465-1.217-.706-1.854a14.922 14.922 0 0 1-.554-1.72c-.052-.178-.09-.53-.115-1.051-.026-.522-.052-1.127-.077-1.815a69.999 69.999 0 0 0-.114-2.14 16.43 16.43 0 0 0-.269-2.064c-.127-.637-.292-1.159-.496-1.567-.204-.407-.458-.612-.764-.612-.255 0-.471.071-.65.21-.178.141-.343.339-.497.594 0 .229.006.637.019 1.223a84.229 84.229 0 0 1 0 3.744 62.864 62.864 0 0 0-.02 1.262c0 .458-.183 1.018-.553 1.681-.37.663-.815 1.305-1.337 1.93a10.326 10.326 0 0 1-1.662 1.605c-.588.446-1.108.668-1.568.668a3.58 3.58 0 0 1-1.968-.573 6.036 6.036 0 0 1-1.586-1.49 9.937 9.937 0 0 1-1.184-2.083c-.331-.776-.605-1.56-.821-2.35a17.883 17.883 0 0 1-.479-2.274 13.892 13.892 0 0 1-.152-1.891c0-.077.011-.216.037-.42.025-.204.051-.422.077-.65.025-.23.051-.453.077-.67.025-.215.063-.375.115-.476.203-.79.165-1.345-.115-1.664-.281-.318-.62-.368-1.014-.152s-.732.713-1.012 1.49c-.281.778-.319 1.854-.115 3.23 0 .713.07 1.509.21 2.388.14.879.344 1.77.611 2.674a16.72 16.72 0 0 0 1.033 2.638c.42.853.917 1.618 1.49 2.293a6.725 6.725 0 0 0 1.97 1.605c.737.395 1.565.593 2.482.593.815 0 1.484-.154 2.007-.459.521-.306 1-.67 1.433-1.089a25.1 25.1 0 0 0 1.28-1.338c.42-.472.923-.872 1.51-1.204.407.229.719.523.936.879.216.358.382.74.496 1.147.115.407.197.802.25 1.185.05.381.12.732.21 1.05.088.319.23.58.42.783.19.205.49.306.898.306.331 0 .605-.038.821-.115.216-.075.325-.306.325-.687 0-.254-.09-.63-.267-1.127a84.128 84.128 0 0 0-.612-1.643zm18.383-7.816a9.56 9.56 0 0 0-2.771-1.491 9.733 9.733 0 0 0-3.191-.535c-1.35 0-2.644.154-3.878.46-1.237.304-2.32.789-3.25 1.451-.93.663-1.674 1.542-2.236 2.637-.56 1.097-.84 2.445-.84 4.05 0 .282.044.765.134 1.453.089.689.222 1.504.402 2.446.177.943.381 1.961.61 3.058a88.93 88.93 0 0 0 .765 3.324c.28 1.121.567 2.203.86 3.249.293 1.044.586 1.968.879 2.77.293.803.578 1.44.86 1.911.28.472.547.707.802.707h.229c.05-.051.178-.153.383-.305a3.19 3.19 0 0 0 .344-.383v-.077l.037-.075a.42.42 0 0 0-.019-.135.412.412 0 0 1-.018-.133 59.495 59.495 0 0 1-.325-1.835l-.477-2.847a526.928 526.928 0 0 1-.554-3.343 179.825 179.825 0 0 1-.517-3.345 760.891 760.891 0 0 0-.42-2.865 84.883 84.883 0 0 1-.267-1.892c0-.05-.026-.255-.077-.612-.052-.357-.09-.77-.115-1.241a57.875 57.875 0 0 0-.095-1.414c-.038-.472-.071-.847-.096-1.129v-.458c0-.381.152-.725.458-1.031.306-.306.695-.58 1.166-.823a8.887 8.887 0 0 1 1.548-.61c.56-.165 1.095-.306 1.605-.42.51-.115.962-.198 1.356-.25.395-.05.644-.076.746-.076a7.95 7.95 0 0 1 2.293.344c.764.23 1.452.554 2.064.975.61.42 1.108.948 1.49 1.585.382.638.574 1.39.574 2.255 0 .586-.218 1.07-.65 1.452-.434.383-.95.682-1.548.9a8.431 8.431 0 0 1-1.911.439c-.675.075-1.217.114-1.625.114-.56 0-1.083-.114-1.566-.345-.51-.203-1.02-.426-1.529-.668a53.87 53.87 0 0 0-1.51-.688 3.837 3.837 0 0 0-1.547-.325c0 1.02.23 1.81.687 2.37.46.56 1.045.98 1.758 1.26a8.44 8.44 0 0 0 2.351.536c.853.076 1.687.114 2.504.114.84 0 1.662-.075 2.464-.229a7.238 7.238 0 0 0 2.197-.783 4.112 4.112 0 0 0 1.568-1.529c.381-.65.573-1.484.573-2.503 0-1.172-.243-2.216-.727-3.134a7.162 7.162 0 0 0-1.948-2.331zm11.77 8.618c-1.07-.293-1.955-.663-2.656-1.108-.702-.445-1.237-.962-1.605-1.548a6.471 6.471 0 0 1-.802-1.834 8.986 8.986 0 0 1-.288-1.95 50.409 50.409 0 0 1-.037-1.987c0-.865.139-1.694.419-2.484a7.636 7.636 0 0 1 1.185-2.16 6.171 6.171 0 0 1 1.853-1.585 5.938 5.938 0 0 1 2.427-.726c.561-.051 1.064.037 1.51.268a3.88 3.88 0 0 1 1.911 2.235c.165.497.248 1 .248 1.51 0 .484-.255.974-.764 1.47a8.2 8.2 0 0 1-1.816 1.319c-.7.383-1.388.694-2.062.937-.676.242-1.193.362-1.55.362a77.414 77.414 0 0 0-1.451-.229c-.357-.025-.625-.019-.802.019-.179.04-.287.103-.325.191a.808.808 0 0 0-.058.325c0 .408.077.714.229.917.154.204.357.358.612.46a2.3 2.3 0 0 0 .86.152h.936c.815 0 1.694-.134 2.636-.402.943-.267 1.822-.65 2.639-1.146a6.899 6.899 0 0 0 2.024-1.853 4.131 4.131 0 0 0 .804-2.485c0-.764-.077-1.476-.23-2.139a5.091 5.091 0 0 0-.86-1.816 5.007 5.007 0 0 0-1.528-1.318c-.625-.357-1.358-.586-2.199-.688-1.427 0-2.682.275-3.764.821a8.44 8.44 0 0 0-2.75 2.198c-.754.918-1.326 1.98-1.72 3.19a12.2 12.2 0 0 0-.593 3.803c0 1.581.286 3 .86 4.261a9.436 9.436 0 0 0 2.35 3.211c.993.88 2.14 1.56 3.439 2.044 1.3.484 2.689.726 4.167.726a13.855 13.855 0 0 0 4.032-.63 9.807 9.807 0 0 0 1.986-.86 4.874 4.874 0 0 0 1.548-1.375l-6.841.458c-1.58-.077-2.904-.261-3.974-.554zm49.728 105.42c-3.879 0-6.803 1.828-6.803 4.25 0 2.422 2.924 4.247 6.803 4.247 3.878 0 6.803-1.825 6.803-4.247 0-2.422-2.925-4.25-6.803-4.25zm0 5.527c-2.496 0-3.784-.98-3.832-1.274.043-.299 1.324-1.282 3.832-1.282 2.499 0 3.782.978 3.833 1.28-.055.3-1.346 1.276-3.833 1.276zm89.11-5.526c-3.878 0-6.805 1.827-6.805 4.25 0 2.421 2.927 4.246 6.805 4.246s6.802-1.825 6.802-4.247c0-2.422-2.924-4.25-6.802-4.25zm0 5.526c-2.495 0-3.785-.98-3.835-1.274.044-.299 1.329-1.282 3.835-1.282 2.497 0 3.78.978 3.832 1.28-.055.3-1.346 1.276-3.832 1.276z" fill="#0d7b85"/><path d="M82.723 81.505c14.495 0 26.257-11.762 26.257-26.258 0-14.524-11.762-26.287-26.257-26.287-14.525 0-26.287 11.763-26.287 26.287 0 14.496 11.762 26.258 26.287 26.258zm0-35.673c5.198 0 9.416 4.217 9.416 9.415s-4.218 9.416-9.416 9.416c-5.228 0-9.446-4.218-9.446-9.416s4.218-9.415 9.446-9.415zm0 97.188c-14.525 0-26.287 11.762-26.287 26.287h16.841c0-5.198 4.218-9.416 9.446-9.416 5.198 0 9.416 4.218 9.416 9.416h16.841c0-14.525-11.762-26.287-26.257-26.287zm25.99-55.812h-52.01c-5.168 0-9.386 4.218-9.386 9.386v41.733h15.475v-37.218H75.06v37.218h15.297v-37.218h12.268v37.218h15.475V96.594c0-5.168-4.218-9.386-9.386-9.386zm93.553 152.928c-5.47 0-9.472 4.177-9.472 9.882v20.177c0 5.71 4.001 9.886 9.472 9.886 2.824 0 5.588-1.297 7.353-3.472 1.47-1.825 2.06-3.707 2.06-6.414v-20.177c0-2.706-.59-4.589-2.06-6.413-1.765-2.176-4.53-3.47-7.353-3.47zm3.823 29.885c0 1.294-.117 1.883-.47 2.469-.706 1.236-2.06 2.001-3.353 2.001-.941 0-1.825-.353-2.589-1-1-.882-1.294-1.706-1.294-3.47v-20.003c0-1.235.118-1.763.53-2.413.764-1.117 2.117-1.883 3.41-1.883 1.12 0 2.237.59 3.061 1.59.53.705.705 1.294.705 2.706v20.003zm10.002-24.299h9.766l-10.53 29.004v5.001h16.825v-5.59H221.62l10.53-29.177v-4.473h-16.06v5.235zm27.354-5.235l-8.764 39.24h5.94l1.59-8.412h7.294l1.59 8.412h6l-8.766-39.24h-4.884zm-.235 25.592l2.647-14.297 2.649 14.297h-5.296zm29.886-1.824l-8.766-23.768h-5.235v39.24h5.59v-23.826l8.765 23.826h5.236v-39.24h-5.59v23.768zm17.648-23.768l-8.764 39.24h5.94l1.59-8.412h7.293l1.59 8.412h6l-8.766-39.24h-4.883zm-.235 25.592l2.647-14.297 2.648 14.297h-5.295zm28.531-4.707l-7.47-20.885h-5.178v39.24h5.59v-23.884l5.53 16.766h2.823l5.648-16.766v23.884h5.588v-39.24h-5.236l-7.295 20.885zm35.712 18.355h16.767v-5.59H360.34v-11.646h9.825v-5.235h-9.825v-11.534h11.18v-5.235h-16.768v39.24zm30.238-39.24h-9.178v39.24h5.59v-15.472h2.88c3.237 0 5.178-.766 7.118-2.706 1.825-1.825 2.59-3.882 2.59-7v-5.647c0-1.709-1.177-4.238-2.59-5.709-1.644-1.706-4.058-2.706-6.41-2.706zm3.765 14.062c0 1.94-.177 2.41-1.059 3.292-.824.824-1.647 1.12-3.353 1.12h-2.941v-13.239h3.411c2.294 0 3.942 1.532 3.942 3.708v5.12zm8.94 25.178h5.59v-39.24h-5.59v39.24zm16.415-39.24h-5.59v39.24h16.766v-5.59H414.11v-33.65zm38.744-.351c-5.235 0-9.12 4.058-9.12 9.528v20.239c0 2.706.296 4.119 1.297 5.766 1.587 2.646 4.705 4.412 7.823 4.412 3.119 0 6.237-1.766 7.823-4.473.943-1.647 1.236-2.88 1.236-5.705v-1.352h-5.587v1.352c0 2.001-.06 2.236-.412 2.825-.646 1.059-1.943 1.763-3.118 1.763a3.658 3.658 0 0 1-2.53-1.058c-.884-.882-.942-1.178-.942-3.53v-20.239c0-2.352 1.413-3.88 3.53-3.88 2.176 0 3.472 1.47 3.472 3.88v2.06h5.587v-2.06c0-5.412-3.881-9.528-9.059-9.528zm19.707.35l-8.765 39.241h5.94l1.59-8.412h7.295l1.587 8.412h6.001l-8.766-39.24h-4.882zm-.234 25.593l2.645-14.297 2.648 14.297h-5.293zm28.53-4.707l-7.469-20.885h-5.177v39.24h5.59v-23.884l5.528 16.766h2.825l5.648-16.766v23.884h5.587v-39.24h-5.236l-7.295 20.885zm26.945-20.885h-9.178v39.24h5.59v-15.472h2.883c3.234 0 5.178-.766 7.118-2.706 1.825-1.825 2.588-3.882 2.588-7v-5.647c0-1.709-1.175-4.238-2.588-5.709-1.647-1.706-4.06-2.706-6.413-2.706zm3.765 14.062c0 1.94-.177 2.41-1.059 3.292-.823.824-1.647 1.12-3.353 1.12h-2.941v-13.239h3.411c2.295 0 3.942 1.532 3.942 3.708v5.12zm21.593 15.942c0 2.41-1.413 4-3.53 4-.824 0-1.706-.353-2.356-.881-.881-.824-1.174-1.532-1.174-3.119v-30.004h-5.59v30.004c0 1.999.293 3.47 1.117 4.94 1.531 2.826 4.708 4.65 8.003 4.65 3.176 0 6.117-1.648 7.823-4.473.943-1.586 1.294-2.88 1.294-5.117v-30.004h-5.587v30.004zm28.882-18.767v-1.764c0-5.531-4.116-9.824-9.413-9.824-5.294 0-9.47 4.354-9.47 9.824v1.764c0 2.53.353 3.765 1.412 5.47 1.352 2.06 3 3.177 6.53 4.532 4.823 1.824 5.354 2.352 5.354 5.47v2.707c0 1.528-.119 2.117-.53 2.764-.706 1.12-2.06 1.824-3.473 1.824-1.528 0-2.822-.704-3.527-1.94-.412-.708-.53-1.178-.53-2.59v-1.41h-5.648v1.41c0 5.943 4 10.12 9.766 10.12 3.118 0 5.764-1.297 7.646-3.765 1.471-1.944 1.883-3.295 1.883-6.355v-3.177c0-5-2.41-7.884-8.47-10.117-4.177-1.59-4.766-2.179-4.766-4.943v-1.764c0-2.529 1.529-4.238 3.765-4.238 2.353 0 3.884 1.648 3.884 4.238v1.764h5.587z" fill="#fff"/></svg>